<mxfile host="app.diagrams.net" agent="Mozilla/5.0 (Windows NT 10.0; Win64; x64) AppleWebKit/537.36 (KHTML, like Gecko) Chrome/139.0.0.0 Safari/537.36" version="28.1.2">
  <diagram name="Page-1" id="nk3yhh7_28yMGZY1KQTT">
    <mxGraphModel dx="2505" dy="1015" grid="1" gridSize="10" guides="1" tooltips="1" connect="1" arrows="1" fold="1" page="1" pageScale="1" pageWidth="827" pageHeight="1169" math="0" shadow="0">
      <root>
        <mxCell id="0" />
        <mxCell id="1" parent="0" />
        <mxCell id="Ro3I4r_fqZkwkAs3ClcY-6" value="&lt;font style=&quot;font-size: 16px;&quot;&gt;&lt;b&gt;Snowflake Service&lt;/b&gt;&lt;/font&gt;" style="html=1;whiteSpace=wrap;dashed=1;gradientColor=default;fillColor=none;labelPosition=center;verticalLabelPosition=middle;align=center;verticalAlign=top;" vertex="1" parent="1">
          <mxGeometry x="69" y="510" width="501" height="140" as="geometry" />
        </mxCell>
        <mxCell id="YFmmI4BY76K4JnnpCuWu-1" value="&lt;font style=&quot;font-size: 16px;&quot;&gt;&lt;b&gt;Snowflake API&lt;/b&gt;&lt;/font&gt;" style="html=1;whiteSpace=wrap;dashed=1;gradientColor=default;fillColor=none;labelPosition=center;verticalLabelPosition=middle;align=center;verticalAlign=top;" parent="1" vertex="1">
          <mxGeometry x="80" y="181.25" width="446.78" height="298.75" as="geometry" />
        </mxCell>
        <mxCell id="YFmmI4BY76K4JnnpCuWu-2" value="&lt;span style=&quot;font-size: 16px;&quot;&gt;&lt;b&gt;Dispatch&lt;/b&gt;&lt;/span&gt;" style="html=1;whiteSpace=wrap;dashed=1;gradientColor=default;fillColor=none;labelPosition=center;verticalLabelPosition=middle;align=center;verticalAlign=top;" parent="1" vertex="1">
          <mxGeometry x="570" y="181.25" width="390" height="280" as="geometry" />
        </mxCell>
        <mxCell id="YFmmI4BY76K4JnnpCuWu-10" value="&lt;span style=&quot;font-size: 16px;&quot;&gt;&lt;b&gt;Snowflake - AWS&lt;br&gt;(Long term data storage)&lt;/b&gt;&lt;/span&gt;" style="html=1;whiteSpace=wrap;dashed=1;gradientColor=default;fillColor=none;labelPosition=center;verticalLabelPosition=middle;align=center;verticalAlign=top;" parent="1" vertex="1">
          <mxGeometry x="-490" y="180" width="540" height="405" as="geometry" />
        </mxCell>
        <mxCell id="YFmmI4BY76K4JnnpCuWu-13" value="S3 data warehouse" style="whiteSpace=wrap;html=1;align=center;fontSize=16;dashed=1;fillColor=none;verticalAlign=top;fontStyle=1" parent="1" vertex="1">
          <mxGeometry x="-438" y="250" width="438" height="290" as="geometry" />
        </mxCell>
        <mxCell id="Ro3I4r_fqZkwkAs3ClcY-9" style="edgeStyle=orthogonalEdgeStyle;rounded=0;orthogonalLoop=1;jettySize=auto;html=1;exitX=0;exitY=0.75;exitDx=0;exitDy=0;entryX=1;entryY=0.75;entryDx=0;entryDy=0;" edge="1" parent="1" source="YFmmI4BY76K4JnnpCuWu-14" target="eI-NIGPQW_OnHmxQVv3K-4">
          <mxGeometry relative="1" as="geometry" />
        </mxCell>
        <mxCell id="YFmmI4BY76K4JnnpCuWu-14" value="Model Training/ReTraining" style="whiteSpace=wrap;html=1;align=center;fontSize=14;" parent="1" vertex="1">
          <mxGeometry x="136.78" y="391.25" width="170" height="50" as="geometry" />
        </mxCell>
        <mxCell id="YFmmI4BY76K4JnnpCuWu-26" style="edgeStyle=orthogonalEdgeStyle;rounded=0;orthogonalLoop=1;jettySize=auto;html=1;exitX=0;exitY=0.5;exitDx=0;exitDy=0;entryX=1;entryY=0.5;entryDx=0;entryDy=0;" parent="1" source="YFmmI4BY76K4JnnpCuWu-18" target="YFmmI4BY76K4JnnpCuWu-20" edge="1">
          <mxGeometry relative="1" as="geometry" />
        </mxCell>
        <mxCell id="YFmmI4BY76K4JnnpCuWu-18" value="Fetch output from model&lt;div&gt;with relevant input&lt;/div&gt;" style="whiteSpace=wrap;html=1;align=center;fontSize=14;" parent="1" vertex="1">
          <mxGeometry x="590" y="301.25" width="170" height="50" as="geometry" />
        </mxCell>
        <mxCell id="YFmmI4BY76K4JnnpCuWu-20" value="Handle ML query" style="whiteSpace=wrap;html=1;align=center;fontSize=14;" parent="1" vertex="1">
          <mxGeometry x="345.78" y="301.25" width="170" height="50" as="geometry" />
        </mxCell>
        <mxCell id="YFmmI4BY76K4JnnpCuWu-21" value="" style="endArrow=open;endFill=1;endSize=12;html=1;rounded=0;exitX=0.25;exitY=1;exitDx=0;exitDy=0;entryX=1;entryY=0.5;entryDx=0;entryDy=0;" parent="1" source="YFmmI4BY76K4JnnpCuWu-20" target="YFmmI4BY76K4JnnpCuWu-14" edge="1">
          <mxGeometry width="160" relative="1" as="geometry">
            <mxPoint x="256.78" y="421.25" as="sourcePoint" />
            <mxPoint x="416.78" y="421.25" as="targetPoint" />
          </mxGeometry>
        </mxCell>
        <mxCell id="YFmmI4BY76K4JnnpCuWu-22" value="&lt;font style=&quot;font-size: 13px;&quot;&gt;No model exists&lt;/font&gt;" style="edgeLabel;html=1;align=center;verticalAlign=middle;resizable=0;points=[];" parent="YFmmI4BY76K4JnnpCuWu-21" vertex="1" connectable="0">
          <mxGeometry x="-0.2521" y="1" relative="1" as="geometry">
            <mxPoint as="offset" />
          </mxGeometry>
        </mxCell>
        <mxCell id="eI-NIGPQW_OnHmxQVv3K-10" style="edgeStyle=orthogonalEdgeStyle;rounded=0;orthogonalLoop=1;jettySize=auto;html=1;exitX=0;exitY=0.5;exitDx=0;exitDy=0;entryX=1;entryY=0.25;entryDx=0;entryDy=0;" parent="1" source="YFmmI4BY76K4JnnpCuWu-23" target="eI-NIGPQW_OnHmxQVv3K-4" edge="1">
          <mxGeometry relative="1" as="geometry">
            <Array as="points">
              <mxPoint x="-60" y="256" />
              <mxPoint x="-60" y="430" />
            </Array>
            <mxPoint x="-135" y="515" as="targetPoint" />
          </mxGeometry>
        </mxCell>
        <mxCell id="YFmmI4BY76K4JnnpCuWu-23" value="Load Model + Get data predictions" style="whiteSpace=wrap;html=1;align=center;fontSize=14;" parent="1" vertex="1">
          <mxGeometry x="100" y="231.25" width="170" height="50" as="geometry" />
        </mxCell>
        <mxCell id="YFmmI4BY76K4JnnpCuWu-24" value="" style="endArrow=open;endFill=1;endSize=12;html=1;rounded=0;exitX=0.207;exitY=-0.007;exitDx=0;exitDy=0;exitPerimeter=0;entryX=1;entryY=0.5;entryDx=0;entryDy=0;" parent="1" source="YFmmI4BY76K4JnnpCuWu-20" target="YFmmI4BY76K4JnnpCuWu-23" edge="1">
          <mxGeometry width="160" relative="1" as="geometry">
            <mxPoint x="256.78" y="421.25" as="sourcePoint" />
            <mxPoint x="416.78" y="421.25" as="targetPoint" />
          </mxGeometry>
        </mxCell>
        <mxCell id="YFmmI4BY76K4JnnpCuWu-25" value="Pass in query + get output" style="edgeLabel;html=1;align=center;verticalAlign=middle;resizable=0;points=[];fontSize=13;" parent="YFmmI4BY76K4JnnpCuWu-24" vertex="1" connectable="0">
          <mxGeometry x="0.2671" y="1" relative="1" as="geometry">
            <mxPoint x="59" y="-2" as="offset" />
          </mxGeometry>
        </mxCell>
        <mxCell id="YFmmI4BY76K4JnnpCuWu-27" value="User action" style="whiteSpace=wrap;html=1;align=center;fontSize=14;" parent="1" vertex="1">
          <mxGeometry x="750" y="226.25" width="170" height="50" as="geometry" />
        </mxCell>
        <mxCell id="YFmmI4BY76K4JnnpCuWu-28" value="" style="endArrow=open;endFill=1;endSize=12;html=1;rounded=0;exitX=0;exitY=0.5;exitDx=0;exitDy=0;entryX=0.75;entryY=0;entryDx=0;entryDy=0;" parent="1" source="YFmmI4BY76K4JnnpCuWu-27" target="YFmmI4BY76K4JnnpCuWu-18" edge="1">
          <mxGeometry width="160" relative="1" as="geometry">
            <mxPoint x="159.99999999999997" y="421.25" as="sourcePoint" />
            <mxPoint x="320" y="421.25" as="targetPoint" />
          </mxGeometry>
        </mxCell>
        <mxCell id="YFmmI4BY76K4JnnpCuWu-29" value="Display model result" style="whiteSpace=wrap;html=1;align=center;fontSize=14;" parent="1" vertex="1">
          <mxGeometry x="760" y="371.25" width="170" height="50" as="geometry" />
        </mxCell>
        <mxCell id="YFmmI4BY76K4JnnpCuWu-30" value="" style="endArrow=open;endFill=1;endSize=12;html=1;rounded=0;exitX=0.75;exitY=1;exitDx=0;exitDy=0;entryX=0;entryY=0.5;entryDx=0;entryDy=0;" parent="1" source="YFmmI4BY76K4JnnpCuWu-18" target="YFmmI4BY76K4JnnpCuWu-29" edge="1">
          <mxGeometry width="160" relative="1" as="geometry">
            <mxPoint x="159.99999999999997" y="421.25" as="sourcePoint" />
            <mxPoint x="320" y="421.25" as="targetPoint" />
          </mxGeometry>
        </mxCell>
        <mxCell id="eI-NIGPQW_OnHmxQVv3K-1" value="Schema - unique for each customer.&lt;br&gt;Same datastructure" style="whiteSpace=wrap;html=1;align=center;fontSize=16;dashed=1;fillColor=none;verticalAlign=top;fontStyle=1" parent="1" vertex="1">
          <mxGeometry x="-419.5" y="294.38" width="399" height="205.62" as="geometry" />
        </mxCell>
        <mxCell id="uEylgo5YxC_89YeR1alC-6" style="edgeStyle=orthogonalEdgeStyle;rounded=0;orthogonalLoop=1;jettySize=auto;html=1;exitX=0.25;exitY=0;exitDx=0;exitDy=0;entryX=0.5;entryY=1;entryDx=0;entryDy=0;" parent="1" source="rtBuZWrgFB-SsXa5-KP_-31" target="YFmmI4BY76K4JnnpCuWu-14" edge="1">
          <mxGeometry relative="1" as="geometry" />
        </mxCell>
        <mxCell id="rtBuZWrgFB-SsXa5-KP_-31" value="Scheduled Model retraining" style="whiteSpace=wrap;html=1;align=center;fontSize=14;" parent="1" vertex="1">
          <mxGeometry x="170" y="570" width="206.61" height="50" as="geometry" />
        </mxCell>
        <mxCell id="eI-NIGPQW_OnHmxQVv3K-8" style="edgeStyle=orthogonalEdgeStyle;rounded=0;orthogonalLoop=1;jettySize=auto;html=1;exitX=1;exitY=0.5;exitDx=0;exitDy=0;entryX=0;entryY=0.25;entryDx=0;entryDy=0;" parent="1" source="eI-NIGPQW_OnHmxQVv3K-3" target="YFmmI4BY76K4JnnpCuWu-14" edge="1">
          <mxGeometry relative="1" as="geometry">
            <Array as="points">
              <mxPoint x="50" y="370" />
              <mxPoint x="50" y="404" />
            </Array>
          </mxGeometry>
        </mxCell>
        <mxCell id="eI-NIGPQW_OnHmxQVv3K-12" style="edgeStyle=orthogonalEdgeStyle;rounded=0;orthogonalLoop=1;jettySize=auto;html=1;exitX=1;exitY=0.75;exitDx=0;exitDy=0;entryX=0;entryY=0.5;entryDx=0;entryDy=0;" parent="1" source="eI-NIGPQW_OnHmxQVv3K-3" target="rtBuZWrgFB-SsXa5-KP_-31" edge="1">
          <mxGeometry relative="1" as="geometry">
            <Array as="points">
              <mxPoint x="-40" y="380" />
              <mxPoint x="-40" y="595" />
            </Array>
          </mxGeometry>
        </mxCell>
        <mxCell id="eI-NIGPQW_OnHmxQVv3K-3" value="Tables" style="whiteSpace=wrap;html=1;align=center;fontSize=14;" parent="1" vertex="1">
          <mxGeometry x="-305" y="350" width="170" height="40" as="geometry" />
        </mxCell>
        <mxCell id="eI-NIGPQW_OnHmxQVv3K-4" value="Stages" style="whiteSpace=wrap;html=1;align=center;fontSize=14;" parent="1" vertex="1">
          <mxGeometry x="-305" y="420" width="170" height="40" as="geometry" />
        </mxCell>
      </root>
    </mxGraphModel>
  </diagram>
</mxfile>
